Coordinates
version=1
nRows=17
nColumns=63
inDegrees=yes

Units are S.I. units (second, meters, Newtons, ...)
If the header above contains a line with 'inDegrees', this indicates whether rotational values are in degrees (yes) or radians (no).

endheader
time	pelvis_tilt	pelvis_list	pelvis_rotation	pelvis_tx	pelvis_ty	pelvis_tz	hip_flexion_r	hip_adduction_r	hip_rotation_r	knee_angle_r	knee_angle_r_beta	ankle_angle_r	subtalar_angle_r	mtp_angle_r	hip_flexion_l	hip_adduction_l	hip_rotation_l	knee_angle_l	knee_angle_l_beta	ankle_angle_l	subtalar_angle_l	mtp_angle_l	L5_S1_Flex_Ext	L5_S1_Lat_Bending	L5_S1_axial_rotation	L4_L5_Flex_Ext	L4_L5_Lat_Bending	L4_L5_axial_rotation	L3_L4_Flex_Ext	L3_L4_Lat_Bending	L3_L4_axial_rotation	L2_L3_Flex_Ext	L2_L3_Lat_Bending	L2_L3_axial_rotation	L1_L2_Flex_Ext	L1_L2_Lat_Bending	L1_L2_axial_rotation	L1_T12_Flex_Ext	L1_T12_Lat_Bending	L1_T12_axial_rotation	Abs_r3	Abs_r2	Abs_r1	Abs_t1	Abs_t2	neck_flexion	neck_bending	neck_rotation	arm_flex_r	arm_add_r	arm_rot_r	elbow_flex_r	pro_sup_r	wrist_flex_r	wrist_dev_r	arm_flex_l	arm_add_l	arm_rot_l	elbow_flex_l	pro_sup_l	wrist_flex_l	wrist_dev_l
4.233333	2.010544	-18.314579	75.859882	0.231991	0.893997	0.645906	18.440390	5.269438	6.587576	17.468716	0.304887	24.471352	-6.985126	0.000000	16.258060	-6.359695	-2.681446	18.433743	0.321730	33.497774	-7.229643	0.000000	-0.371932	-0.429797	-6.716671	-0.690716	-0.571630	-7.136463	-0.611048	-1.045008	-7.136463	-0.425082	-1.045008	-5.877087	-0.345376	-0.876441	-5.457295	-0.212522	-0.665755	-5.037503	-2.656676	-4.861946	-37.356111	0.000000	0.000000	17.799154	18.670931	19.783616	76.922872	-4.148260	204.677742	0.141230	39.950301	-69.739958	34.258765	26.653637	-14.458232	1.231152	125.918826	67.799912	0.025151	28.284646
4.250000	2.198294	-17.848413	76.528738	0.229930	0.894485	0.646879	18.091316	5.118417	6.153044	17.651537	0.308077	24.405220	-7.358172	0.000000	16.181058	-6.192366	-2.055042	18.893984	0.329762	33.652638	-7.261590	0.000000	-0.400971	-0.459905	-6.708108	-0.744643	-0.611673	-7.127365	-0.658755	-1.118212	-7.127365	-0.458270	-1.118212	-5.869595	-0.372341	-0.937838	-5.450338	-0.229115	-0.712392	-5.031081	-2.864094	-5.202534	-37.308485	0.000000	0.000000	15.957024	18.287227	19.291776	76.905476	-4.839343	203.951530	0.146286	41.316856	-69.739873	34.194980	28.988151	-14.305030	3.609367	118.252590	75.034734	1.881272	28.940525
4.266667	2.357039	-17.344530	77.133479	0.228050	0.894729	0.647914	17.755679	4.972934	5.855387	17.922069	0.312799	24.476844	-7.771923	0.000000	16.086159	-6.009513	-1.443769	19.407100	0.338718	33.866598	-7.348837	0.000000	-0.425715	-0.488194	-6.723923	-0.790596	-0.649298	-7.144168	-0.699408	-1.186995	-7.144168	-0.486550	-1.186995	-5.883433	-0.395319	-0.995525	-5.463187	-0.243254	-0.756212	-5.042942	-3.040842	-5.522548	-37.396443	0.000000	0.000000	14.132924	17.503435	18.953055	76.966812	-5.311236	203.335105	0.151454	43.195683	-69.736150	34.119654	30.854605	-14.305089	5.777186	110.530656	82.855102	4.033336	29.793548
4.283333	2.536289	-16.827644	77.634200	0.226406	0.894791	0.649033	17.432452	4.894084	5.686287	18.244296	0.318423	24.609525	-8.197682	0.000000	15.973218	-5.873818	-0.851312	19.958938	0.348349	34.136625	-7.546271	0.000000	-0.448911	-0.512462	-6.740031	-0.833673	-0.681575	-7.161283	-0.737517	-1.246001	-7.161283	-0.513061	-1.246001	-5.897527	-0.416859	-1.045013	-5.476276	-0.256508	-0.793804	-5.055024	-3.206530	-5.797075	-37.486033	0.000000	0.000000	12.348524	16.469057	18.560238	77.069838	-5.674869	202.657191	0.155929	45.768720	-69.731153	34.084422	32.393228	-14.502068	7.968704	103.007421	88.592311	5.755055	30.832409
4.300000	2.723361	-16.332753	78.070816	0.224926	0.894684	0.650093	17.131316	4.855404	5.606848	18.577345	0.324236	24.795527	-8.619626	0.000000	15.860056	-5.772548	-0.284481	20.511809	0.357999	34.431308	-7.790630	0.000000	-0.468014	-0.529545	-6.781714	-0.869149	-0.704295	-7.205571	-0.768900	-1.287537	-7.205571	-0.534893	-1.287537	-5.934000	-0.434598	-1.079849	-5.510143	-0.267423	-0.820266	-5.086285	-3.342977	-5.990324	-37.717858	0.000000	0.000000	10.661670	15.287028	18.423836	77.232456	-5.849340	202.087225	0.159841	48.877506	-69.724837	34.043756	33.498893	-14.771277	9.818315	96.246159	92.089808	7.237473	31.970430
4.316667	2.928583	-15.893754	78.426313	0.223596	0.894454	0.650988	16.859970	4.869466	5.605310	18.880060	0.329519	25.004493	-9.007841	0.000000	15.750625	-5.722743	0.238295	21.025394	0.366962	34.728693	-8.079902	0.000000	-0.481157	-0.537188	-6.843338	-0.893557	-0.714460	-7.271046	-0.790493	-1.306119	-7.271046	-0.549914	-1.306119	-5.987920	-0.446802	-1.095434	-5.560212	-0.274933	-0.832104	-5.132503	-3.436857	-6.076777	-38.060590	0.000000	0.000000	9.095510	14.003882	18.524643	77.440759	-5.872521	201.661354	0.162939	52.519869	-69.718053	34.010107	34.185736	-14.998713	11.143525	90.571852	93.552872	9.014617	32.933172
4.333333	3.154982	-15.527596	78.739337	0.222394	0.894164	0.651643	16.620382	4.928082	5.629624	19.127502	0.333838	25.220721	-9.351497	0.000000	15.650506	-5.724001	0.734402	21.469192	0.374708	35.003562	-8.376565	0.000000	-0.489082	-0.536405	-6.927599	-0.908274	-0.713419	-7.360574	-0.803512	-1.304216	-7.360574	-0.558972	-1.304216	-6.061649	-0.454161	-1.093838	-5.628674	-0.279461	-0.830892	-5.195699	-3.493462	-6.067925	-38.529227	0.000000	0.000000	7.646472	12.738148	18.847058	77.654672	-5.779239	201.341048	0.165132	56.481976	-69.711467	33.982551	34.480651	-15.191426	11.967530	86.303862	93.218391	10.777868	33.494486
4.350000	3.396586	-15.249815	78.997705	0.221351	0.893850	0.652029	16.423971	5.027040	5.654422	19.308939	0.337005	25.444842	-9.602843	0.000000	15.563629	-5.773864	1.204373	21.820399	0.380838	35.234976	-8.693301	0.000000	-0.490982	-0.529306	-7.028692	-0.911803	-0.703977	-7.467985	-0.806634	-1.286954	-7.467985	-0.561143	-1.286954	-6.150105	-0.455926	-1.079360	-5.710812	-0.280547	-0.819895	-5.271519	-3.507036	-5.987612	-39.091475	0.000000	0.000000	6.344593	11.544662	19.281134	77.840822	-5.602308	201.002021	0.166310	60.743071	-69.705509	33.967084	34.404647	-15.364911	12.351999	83.698087	91.500335	11.922839	33.569465
4.366667	3.640048	-15.055990	79.216434	0.220476	0.893553	0.652169	16.268149	5.153169	5.682383	19.420097	0.338945	25.664384	-9.803187	0.000000	15.488766	-5.856663	1.651159	22.069618	0.385188	35.410939	-9.010720	0.000000	-0.488481	-0.520599	-7.141190	-0.907159	-0.692396	-7.587514	-0.802526	-1.265784	-7.587514	-0.558286	-1.265784	-6.248541	-0.453604	-1.061605	-5.802217	-0.279118	-0.806408	-5.355892	-3.489174	-5.889118	-39.717155	0.000000	0.000000	5.222923	10.493218	19.653864	77.957298	-5.383410	200.626590	0.166269	64.991789	-69.700981	33.961637	34.040600	-15.564872	12.497746	82.877686	89.473831	11.577235	33.339794
4.383333	3.874390	-14.946128	79.394617	0.219781	0.893275	0.652073	16.154284	5.293105	5.702347	19.462243	0.339680	25.893166	-9.907411	0.000000	15.425775	-5.963174	2.057177	22.210065	0.387639	35.538580	-9.307596	0.000000	-0.481187	-0.510979	-7.265066	-0.893612	-0.679602	-7.719132	-0.790542	-1.242395	-7.719132	-0.549948	-1.242395	-6.356932	-0.446830	-1.041989	-5.902866	-0.274950	-0.791507	-5.448799	-3.437068	-5.780300	-40.406115	0.000000	0.000000	4.314638	9.571383	19.962736	78.004686	-5.111409	200.280276	0.165185	69.019459	-69.697560	33.966099	33.368933	-15.779997	12.321639	83.876092	88.797500	10.177271	33.183169
4.400000	4.083859	-14.908457	79.545857	0.219255	0.893023	0.651836	16.084251	5.433365	5.726612	19.448067	0.339433	26.114419	-9.969551	0.000000	15.384326	-6.071750	2.448790	22.259376	0.388499	35.614604	-9.604100	0.000000	-0.470846	-0.504617	-7.392032	-0.874408	-0.671140	-7.854034	-0.773553	-1.226925	-7.854034	-0.538130	-1.226925	-6.468028	-0.437227	-1.029014	-6.006026	-0.269041	-0.781651	-5.544024	-3.363205	-5.708323	-41.112263	0.000000	0.000000	3.629677	8.822000	20.051136	77.972908	-4.834388	199.946585	0.163029	72.656001	-69.695860	33.979199	32.464463	-16.074244	12.145410	86.555278	88.393987	7.283829	33.051666
4.416667	4.261220	-14.911612	79.650586	0.218903	0.892837	0.651516	16.031873	5.564242	5.762337	19.387358	0.338373	26.322463	-9.974235	0.000000	15.331705	-6.173891	2.793697	22.217491	0.387768	35.644047	-9.878368	0.000000	-0.461457	-0.502504	-7.513558	-0.856972	-0.668330	-7.983156	-0.758128	-1.221787	-7.983156	-0.527400	-1.221787	-6.574364	-0.428509	-1.024705	-6.104766	-0.263677	-0.778378	-5.635169	-3.296143	-5.684421	-41.788158	0.000000	0.000000	3.156000	8.247057	19.986035	77.878726	-4.554427	199.540643	0.160070	75.816662	-69.695896	33.994725	31.330901	-16.415352	11.817414	90.597972	88.076648	4.089789	32.957129
4.433333	4.400400	-14.945081	79.715426	0.218684	0.892713	0.651177	15.997301	5.677416	5.818055	19.295639	0.336772	26.498941	-9.953560	0.000000	15.271956	-6.258378	3.098359	22.100614	0.385728	35.633617	-10.140425	0.000000	-0.452925	-0.504409	-7.623653	-0.841128	-0.670864	-8.100132	-0.744111	-1.226419	-8.100132	-0.517648	-1.226419	-6.670697	-0.420586	-1.028590	-6.194218	-0.258802	-0.781329	-5.717740	-3.235200	-5.705972	-42.400473	0.000000	0.000000	2.858422	7.822620	19.799466	77.742846	-4.290464	199.075392	0.156261	78.455705	-69.697594	34.012742	30.047554	-16.793565	11.364490	95.561180	87.818476	1.201269	32.944125
4.450000	4.505271	-14.984253	79.741285	0.218548	0.892661	0.650876	15.963971	5.767299	5.877375	19.189116	0.334913	26.634653	-9.892992	0.000000	15.195975	-6.323206	3.357675	21.936553	0.382865	35.598597	-10.369413	0.000000	-0.447679	-0.509877	-7.712820	-0.831385	-0.678136	-8.194871	-0.735493	-1.239715	-8.194871	-0.511653	-1.239715	-6.748717	-0.415715	-1.039741	-6.266666	-0.255804	-0.789799	-5.784615	-3.197729	-5.767830	-42.896390	0.000000	0.000000	2.681016	7.562944	19.504928	77.585055	-4.068126	198.595435	0.151870	80.428383	-69.701038	34.027435	28.766920	-17.214588	10.919945	100.878698	87.618360	-1.182044	32.980056
4.466667	4.583585	-15.011467	79.739010	0.218446	0.892669	0.650657	15.920504	5.835520	5.937437	19.080918	0.333025	26.724076	-9.816614	0.000000	15.103897	-6.369179	3.579983	21.757703	0.379744	35.550887	-10.576241	0.000000	-0.447261	-0.516947	-7.777417	-0.830608	-0.687539	-8.263506	-0.734805	-1.256904	-8.263506	-0.511175	-1.256904	-6.805240	-0.415327	-1.054158	-6.319152	-0.255565	-0.800751	-5.833063	-3.194741	-5.847805	-43.255662	0.000000	0.000000	2.587198	7.438851	19.209511	77.433664	-3.893190	198.189998	0.147574	81.590700	-69.705991	34.035609	27.669519	-17.621225	10.506031	105.922797	87.479313	-2.622517	33.041626
4.483333	4.625968	-15.020364	79.694992	0.218450	0.892731	0.650557	15.865362	5.884885	6.047149	18.976903	0.331209	26.758131	-9.790668	0.000000	14.992475	-6.392711	3.754261	21.565800	0.376394	35.492981	-10.769550	0.000000	-0.449714	-0.528905	-7.809785	-0.835164	-0.703443	-8.297897	-0.738835	-1.285979	-8.297897	-0.513978	-1.285979	-6.833562	-0.417604	-1.078542	-6.345451	-0.256967	-0.819273	-5.857339	-3.212262	-5.983075	-43.435683	0.000000	0.000000	2.551876	7.471204	18.815798	77.270401	-3.784795	197.687603	0.144315	82.047836	-69.711626	34.038734	26.909723	-18.004622	10.275074	110.166590	87.400691	-3.351749	33.123701
4.500000	4.628724	-15.011317	79.639116	0.218491	0.892796	0.650532	15.807061	5.895092	6.134529	18.897185	0.329818	26.783116	-9.751171	0.000000	14.878493	-6.384544	3.881901	21.386284	0.373261	35.440629	-10.910289	0.000000	-0.452269	-0.542964	-7.822896	-0.839908	-0.722142	-8.311827	-0.743032	-1.320162	-8.311827	-0.516898	-1.320162	-6.845034	-0.419977	-1.107212	-6.356103	-0.258426	-0.841051	-5.867172	-3.230509	-6.142116	-43.508600	0.000000	0.000000	2.519615	7.587501	18.537569	77.118875	-3.694469	197.444252	0.142503	81.438197	-69.717493	34.031019	26.512601	-18.316032	10.144210	113.256879	87.381220	-3.324234	33.198924
